<svg width="70" height="70" viewBox="0 0 70 70" fill="none" xmlns="http://www.w3.org/2000/svg">
<path d="M68.4141 33.0586C68.332 41.7266 66.1035 48.5078 61.4688 54.4004C56.4922 60.7305 50.0117 64.75 42.082 66.377C35.957 67.6211 29.9961 67.0742 24.1445 64.9551C22.8457 64.4766 21.5742 63.916 20.3574 63.2461C19.9883 63.041 19.6738 63.0137 19.2637 63.1504C13.7266 64.9414 8.17579 66.7188 2.62501 68.4824C2.37892 68.5645 2.05079 68.7969 1.85939 68.6191C1.64064 68.4004 1.91408 68.0723 1.99611 67.8125C3.10353 64.5176 4.21095 61.209 5.33204 57.9141C6.01564 55.9043 6.67189 53.9082 7.38283 51.9121C7.57423 51.3926 7.50587 50.9961 7.21876 50.5176C5.81056 48.1113 4.7715 45.541 4.03322 42.8477C2.65236 37.7891 2.50197 32.6758 3.58204 27.5625C4.75783 21.9844 7.21876 17.0078 11.0059 12.7148C15.5859 7.51953 21.2324 4.08789 27.9453 2.4336C32.2246 1.38086 36.5449 1.2168 40.8926 1.92774C46.5801 2.85743 51.707 5.11328 56.1777 8.75C60.8262 12.5371 64.2168 17.2402 66.3496 22.8867C67.5254 25.9355 68.4551 30.9258 68.4141 33.0586ZM10.1992 60.3613C13.5899 59.2676 16.8301 58.2285 20.043 57.1758C20.4668 57.0391 20.8086 57.0664 21.1777 57.3125C22.4082 58.1328 23.7344 58.7891 25.1016 59.3633C29.5449 61.25 34.166 61.9336 38.9375 61.3184C44.7891 60.5664 49.9297 58.2148 54.25 54.127C59.6914 48.9727 62.6035 42.6563 62.8633 35.1914C63.1094 27.877 60.7578 21.4512 55.8496 15.9961C51.1875 10.8145 45.336 7.86133 38.4317 7.12305C32.4297 6.48047 26.8106 7.7793 21.6152 10.8965C17.1719 13.5762 13.7676 17.2266 11.4024 21.834C8.79103 26.9063 7.90236 32.293 8.65431 37.9395C9.21486 42.2051 10.7461 46.1289 13.207 49.6563C13.4805 50.0527 13.5625 50.3809 13.3984 50.8457C12.8926 52.2402 12.4414 53.6484 11.9629 55.043C11.3887 56.7656 10.8281 58.4883 10.1992 60.3613Z" fill="#51C85D"/>
<path d="M19.2773 26.6191C19.3457 23.3652 20.4941 20.9453 22.668 19.0176C23.3652 18.3887 24.2266 18.1152 25.1973 18.252C25.6074 18.3066 26.0176 18.3477 26.4277 18.3203C27.1934 18.2793 27.7129 18.6484 27.9727 19.3184C28.8887 21.6973 29.7773 24.0762 30.666 26.4687C30.9668 27.2891 30.4473 27.9316 30.0098 28.5195C29.5039 29.2168 28.8887 29.832 28.2871 30.4473C27.6719 31.0762 27.5898 31.4316 28.0137 32.1973C30.4883 36.6953 33.9609 40.1543 38.6777 42.2871C38.8418 42.3555 39.0059 42.4512 39.1699 42.5332C39.7988 42.8203 40.3594 42.752 40.8379 42.2051C41.7129 41.1797 42.6699 40.2363 43.4766 39.1562C44.0098 38.4453 44.3789 38.3223 45.1855 38.6777C47.5918 39.7168 49.8477 41.0293 52.1445 42.3008C52.5684 42.5332 52.7187 42.8887 52.7051 43.3809C52.582 47.4141 50.2715 49.5195 46.2109 50.4492C44.2422 50.9004 42.4238 50.4082 40.6191 49.7519C36.832 48.3848 33.1816 46.7715 30.1191 44.0644C27.6855 41.9043 25.5391 39.498 23.7207 36.8047C22.3262 34.7266 20.877 32.6895 20.0703 30.2695C19.6055 28.9844 19.2637 27.6719 19.2773 26.6191Z" fill="#51C85D"/>
</svg>
